# xmcd
#
# Track frame offsets:
# 150
# 15782
# 30452
# 53524
# 65888
# 78266
# 98704
# 113640
# 125510
# 144075
# 164340
# 182250
# 196113
# 208840
# 239160
#
# Disc length: 3444 seconds
#
#
# Revision: 0
# Processed by: cddbd v1.5.1PL0 Copyright (c) Steve Scherf et al.
# Submitted via: FreeRIP 2.12 
#
DISCID=ba0d720f
DTITLE=Buffalo Nickel - Noise and Conversation
DYEAR=2004
DGENRE=Rock
TTITLE0=Find Me A Crowd
TTITLE1=Can't Say Anything
TTITLE2=Out Of The Picture
TTITLE3=Family Man
TTITLE4=7 X 70
TTITLE5=Devil
TTITLE6=Bachelor Song
TTITLE7=Just Had A Feeling
TTITLE8=Twangalang
TTITLE9=Eulogy Best Kept To Himself
TTITLE10=Walkin'
TTITLE11=Slow Death
TTITLE12=Alien Queen
TTITLE13=Already
TTITLE14=Emmaline
EXTD=http://www.honknroll.com
EXTT0=
EXTT1=
EXTT2=
EXTT3=
EXTT4=
EXTT5=
EXTT6=
EXTT7=
EXTT8=
EXTT9=
EXTT10=
EXTT11=
EXTT12=
EXTT13=
EXTT14=
PLAYORDER=
